<svg width="239" height="43" viewBox="0 0 239 43" fill="none" xmlns="http://www.w3.org/2000/svg">
<path d="M26.3438 21.25C26.4062 21.8281 26.4531 22.5156 26.4531 23.2188C26.4531 30.7031 21.0156 35.4219 14.4688 35.4219C7.14062 35.4219 1.32812 29.5781 1.32812 22.4375C1.32812 15.2812 7.17188 9.39062 14.3281 9.39062C17.5 9.40625 21.125 10.9375 23.5 13.25L21.2969 16.5312C19.3281 14.5938 16.6719 13.375 14.2812 13.375C9.6875 13.375 5.34375 17.2188 5.34375 22.4375C5.34375 27.375 9.26562 31.4375 14.6406 31.4375C18.9688 31.4375 22.2188 28.7969 22.2188 24.9531V24.875H14.4219V21.25H26.3438ZM45.3594 35L43.6406 31.1719H31.7188L30 35H25.7188L37.5625 9.29688H37.7969L49.6406 35H45.3594ZM33.25 27.7812H42.1094L37.6875 17.9375L33.25 27.7812ZM76.8125 9.26562H77.1094V35H73.1562V21.0312L64.7969 34.5781H64.7656L56.3906 21.0156V35H52.4375V9.26562H52.7344L64.7812 27.5781L76.8125 9.26562ZM96.9688 13.7031H85.9219V20.1562H95.4531V24.0938H85.9219V31.0625H96.9688V35H81.9688V9.8125H96.9688V13.7031ZM114.422 31.0625H125.656V35H110.469V9.8125H114.422V31.0625ZM174.109 9.8125H178.344L166.719 35.5156H166.453L154.875 9.8125H159.078L166.578 26.8594L174.109 9.8125ZM196.156 13.7031H185.109V20.1562H194.641V24.0938H185.109V31.0625H196.156V35H181.156V9.8125H196.156V13.7031ZM218.984 35H214.125L207.344 25.25H204.25V35H200.297L200.281 9.8125H208.109C212.797 9.8125 216.641 13.4219 216.641 17.9062C216.641 21.1562 214.547 23.9844 211.656 24.9219L218.984 35ZM204.234 21.9688H208.203C210.578 21.9844 212.562 20.0625 212.562 17.8125C212.562 15.4688 210.547 13.7344 208.203 13.7344H204.234V21.9688ZM228.922 35.4219C224.781 35.4219 221.641 33.4844 220.203 30.5781L223.328 28.3438C224.453 30.3125 226.547 31.4375 228.969 31.4375C231.797 31.4375 233.938 30.0781 233.938 28.1562C233.938 25.8281 230.625 24.4219 227.688 23.1562C224.734 21.8438 221.453 20.3125 221.453 16.3594C221.453 12.2344 225.031 9.35938 229.562 9.35938C233.156 9.35938 235.844 11.0938 236.875 13.8594L233.938 15.8906C233.156 14.1875 231.422 13.2344 229.594 13.2344C227.281 13.2344 225.438 14.6719 225.438 16.4531C225.438 18.4219 227.766 19.125 230.828 20.4375C234.812 22.1875 237.906 24.1094 237.906 28.0781C237.906 32.5469 234.031 35.4219 228.922 35.4219Z" fill="white"/>
<path d="M151.055 12.3778C154.026 15.3481 154.025 20.164 151.055 23.1343L144.134 30.0548C143.824 30.3653 143.492 30.642 143.145 30.8876L138.678 35.3553L126.379 23.0562C123.408 20.0859 123.408 15.2694 126.379 12.2991C129.349 9.32899 134.165 9.32954 137.135 12.2998L138.756 13.9205L140.298 12.3778C143.269 9.4075 148.085 9.4075 151.055 12.3778Z" fill="white"/>
</svg>
