<svg width="60" height="60" viewBox="0 0 60 60" fill="none" xmlns="http://www.w3.org/2000/svg">
<g filter="url(#filter0_i_186_98)">
<rect width="60" height="60" rx="16" fill="url(#paint0_linear_186_98)"/>
</g>
<g clip-path="url(#clip0_186_98)">
<path d="M36.6667 20H23.3333C22.4493 20 21.6014 20.3512 20.9763 20.9763C20.3512 21.6014 20 22.4493 20 23.3333V33.3333C20 34.2174 20.3512 35.0652 20.9763 35.6904C21.6014 36.3155 22.4493 36.6667 23.3333 36.6667H25.75L29.4592 39.8025C29.6096 39.9298 29.8004 39.9997 29.9975 39.9997C30.1946 39.9997 30.3854 39.9298 30.5358 39.8025L34.25 36.6667H36.6667C37.5507 36.6667 38.3986 36.3155 39.0237 35.6904C39.6488 35.0652 40 34.2174 40 33.3333V23.3333C40 22.4493 39.6488 21.6014 39.0237 20.9763C38.3986 20.3512 37.5507 20 36.6667 20ZM38.3333 33.3333C38.3333 33.7754 38.1577 34.1993 37.8452 34.5118C37.5326 34.8244 37.1087 35 36.6667 35H34.25C33.8561 35.0001 33.4749 35.1398 33.1742 35.3942L30 38.075L26.8275 35.3942C26.5263 35.1394 26.1445 34.9997 25.75 35H23.3333C22.8913 35 22.4674 34.8244 22.1548 34.5118C21.8423 34.1993 21.6667 33.7754 21.6667 33.3333V23.3333C21.6667 22.8913 21.8423 22.4674 22.1548 22.1548C22.4674 21.8423 22.8913 21.6667 23.3333 21.6667H36.6667C37.1087 21.6667 37.5326 21.8423 37.8452 22.1548C38.1577 22.4674 38.3333 22.8913 38.3333 23.3333V33.3333Z" fill="white"/>
<path d="M25.8333 25.8334H30C30.221 25.8334 30.433 25.7456 30.5893 25.5893C30.7455 25.4331 30.8333 25.2211 30.8333 25.0001C30.8333 24.7791 30.7455 24.5671 30.5893 24.4108C30.433 24.2545 30.221 24.1667 30 24.1667H25.8333C25.6123 24.1667 25.4004 24.2545 25.2441 24.4108C25.0878 24.5671 25 24.7791 25 25.0001C25 25.2211 25.0878 25.4331 25.2441 25.5893C25.4004 25.7456 25.6123 25.8334 25.8333 25.8334Z" fill="white"/>
<path d="M34.1667 27.5H25.8333C25.6123 27.5 25.4004 27.5878 25.2441 27.7441C25.0878 27.9004 25 28.1123 25 28.3333C25 28.5543 25.0878 28.7663 25.2441 28.9226C25.4004 29.0789 25.6123 29.1667 25.8333 29.1667H34.1667C34.3877 29.1667 34.5996 29.0789 34.7559 28.9226C34.9122 28.7663 35 28.5543 35 28.3333C35 28.1123 34.9122 27.9004 34.7559 27.7441C34.5996 27.5878 34.3877 27.5 34.1667 27.5Z" fill="white"/>
<path d="M34.1667 30.8333H25.8333C25.6123 30.8333 25.4004 30.921 25.2441 31.0773C25.0878 31.2336 25 31.4456 25 31.6666C25 31.8876 25.0878 32.0996 25.2441 32.2558C25.4004 32.4121 25.6123 32.4999 25.8333 32.4999H34.1667C34.3877 32.4999 34.5996 32.4121 34.7559 32.2558C34.9122 32.0996 35 31.8876 35 31.6666C35 31.4456 34.9122 31.2336 34.7559 31.0773C34.5996 30.921 34.3877 30.8333 34.1667 30.8333Z" fill="white"/>
</g>
<defs>
<filter id="filter0_i_186_98" x="0" y="0" width="64" height="64" filterUnits="userSpaceOnUse" color-interpolation-filters="sRGB">
<feFlood flood-opacity="0" result="BackgroundImageFix"/>
<feBlend mode="normal" in="SourceGraphic" in2="BackgroundImageFix" result="shape"/>
<feColorMatrix in="SourceAlpha" type="matrix" values="0 0 0 0 0 0 0 0 0 0 0 0 0 0 0 0 0 0 127 0" result="hardAlpha"/>
<feMorphology radius="2" operator="erode" in="SourceAlpha" result="effect1_innerShadow_186_98"/>
<feOffset dx="4" dy="4"/>
<feGaussianBlur stdDeviation="4"/>
<feComposite in2="hardAlpha" operator="arithmetic" k2="-1" k3="1"/>
<feColorMatrix type="matrix" values="0 0 0 0 0 0 0 0 0 0 0 0 0 0 0 0 0 0 0.25 0"/>
<feBlend mode="normal" in2="shape" result="effect1_innerShadow_186_98"/>
</filter>
<linearGradient id="paint0_linear_186_98" x1="30" y1="0" x2="30" y2="60" gradientUnits="userSpaceOnUse">
<stop stop-color="#56467E"/>
<stop offset="1" stop-color="#36294A"/>
</linearGradient>
<clipPath id="clip0_186_98">
<rect width="20" height="20" fill="white" transform="translate(20 20)"/>
</clipPath>
</defs>
</svg>
