<svg width="60" height="60" viewBox="0 0 60 60" fill="none" xmlns="http://www.w3.org/2000/svg">
<g filter="url(#filter0_i_186_92)">
<rect width="60" height="60" rx="16" fill="url(#paint0_linear_186_92)"/>
</g>
<path d="M39.2675 27.5442L32.9467 21.2188C32.1644 20.4383 31.1047 20 30 20C28.8953 20 27.8356 20.4383 27.0533 21.2188L20.7325 27.5442C20.4995 27.7758 20.3148 28.0514 20.1891 28.355C20.0633 28.6586 19.9991 28.9841 20 29.3128V37.4985C20 38.1619 20.2634 38.7982 20.7322 39.2673C21.2011 39.7365 21.837 40 22.5 40H37.5C38.163 40 38.7989 39.7365 39.2678 39.2673C39.7366 38.7982 40 38.1619 40 37.4985V29.3128C40.0009 28.9841 39.9367 28.6586 39.8109 28.355C39.6852 28.0514 39.5005 27.7758 39.2675 27.5442ZM32.5 38.3323H27.5V35.052C27.5 34.3886 27.7634 33.7523 28.2322 33.2832C28.7011 32.8141 29.337 32.5505 30 32.5505C30.663 32.5505 31.2989 32.8141 31.7678 33.2832C32.2366 33.7523 32.5 34.3886 32.5 35.052V38.3323ZM38.3333 37.4985C38.3333 37.7196 38.2455 37.9317 38.0892 38.0881C37.933 38.2445 37.721 38.3323 37.5 38.3323H34.1667V35.052C34.1667 33.9463 33.7277 32.8859 32.9463 32.104C32.1649 31.3221 31.1051 30.8829 30 30.8829C28.8949 30.8829 27.8351 31.3221 27.0537 32.104C26.2723 32.8859 25.8333 33.9463 25.8333 35.052V38.3323H22.5C22.279 38.3323 22.067 38.2445 21.9108 38.0881C21.7545 37.9317 21.6667 37.7196 21.6667 37.4985V29.3128C21.6674 29.0918 21.7552 28.88 21.9108 28.7232L28.2317 22.4003C28.7014 21.9325 29.3372 21.6698 30 21.6698C30.6628 21.6698 31.2986 21.9325 31.7683 22.4003L38.0892 28.7257C38.2442 28.8819 38.3319 29.0927 38.3333 29.3128V37.4985Z" fill="white"/>
<defs>
<filter id="filter0_i_186_92" x="0" y="0" width="64" height="64" filterUnits="userSpaceOnUse" color-interpolation-filters="sRGB">
<feFlood flood-opacity="0" result="BackgroundImageFix"/>
<feBlend mode="normal" in="SourceGraphic" in2="BackgroundImageFix" result="shape"/>
<feColorMatrix in="SourceAlpha" type="matrix" values="0 0 0 0 0 0 0 0 0 0 0 0 0 0 0 0 0 0 127 0" result="hardAlpha"/>
<feMorphology radius="2" operator="erode" in="SourceAlpha" result="effect1_innerShadow_186_92"/>
<feOffset dx="4" dy="4"/>
<feGaussianBlur stdDeviation="4"/>
<feComposite in2="hardAlpha" operator="arithmetic" k2="-1" k3="1"/>
<feColorMatrix type="matrix" values="0 0 0 0 0 0 0 0 0 0 0 0 0 0 0 0 0 0 0.25 0"/>
<feBlend mode="normal" in2="shape" result="effect1_innerShadow_186_92"/>
</filter>
<linearGradient id="paint0_linear_186_92" x1="30" y1="0" x2="30" y2="60" gradientUnits="userSpaceOnUse">
<stop stop-color="#7D62C1"/>
<stop offset="1" stop-color="#503B71"/>
</linearGradient>
</defs>
</svg>
