<svg width="138" height="138" viewBox="0 0 138 138" fill="none" xmlns="http://www.w3.org/2000/svg">
<g filter="url(#filter0_d_172_44)">
<rect x="15" y="15" width="104" height="104" rx="14" fill="url(#paint0_linear_172_44)"/>
</g>
<g clip-path="url(#clip0_172_44)">
<path d="M72.8333 60.3333H72.41L70.59 57.9733C70.3554 57.6715 70.0553 57.427 69.7122 57.2584C69.3692 57.0897 68.9923 57.0014 68.61 57H65.39C65.0077 57.0014 64.6308 57.0897 64.2878 57.2584C63.9447 57.427 63.6446 57.6715 63.41 57.9733L61.59 60.3333H61.1667C60.062 60.3347 59.003 60.7741 58.2218 61.5552C57.4407 62.3363 57.0013 63.3953 57 64.5V72.8333C57.0013 73.938 57.4407 74.997 58.2218 75.7782C59.003 76.5593 60.062 76.9987 61.1667 77H72.8333C73.938 76.9987 74.997 76.5593 75.7782 75.7782C76.5593 74.997 76.9987 73.938 77 72.8333V64.5C76.9987 63.3953 76.5593 62.3363 75.7782 61.5552C74.997 60.7741 73.938 60.3347 72.8333 60.3333ZM64.73 58.9917C64.8081 58.8909 64.9081 58.8092 65.0224 58.7529C65.1368 58.6966 65.2625 58.6671 65.39 58.6667H68.61C68.7375 58.6672 68.8631 58.6968 68.9775 58.7531C69.0918 58.8094 69.1919 58.891 69.27 58.9917L70.305 60.3333H63.695L64.73 58.9917ZM75.3333 72.8333C75.3333 73.4964 75.0699 74.1323 74.6011 74.6011C74.1323 75.0699 73.4964 75.3333 72.8333 75.3333H61.1667C60.5036 75.3333 59.8677 75.0699 59.3989 74.6011C58.9301 74.1323 58.6667 73.4964 58.6667 72.8333V64.5C58.6667 63.837 58.9301 63.2011 59.3989 62.7322C59.8677 62.2634 60.5036 62 61.1667 62H72.8333C73.4964 62 74.1323 62.2634 74.6011 62.7322C75.0699 63.2011 75.3333 63.837 75.3333 64.5V72.8333Z" fill="white"/>
<path d="M67 63.6667C66.0111 63.6667 65.0444 63.96 64.2222 64.5094C63.3999 65.0588 62.759 65.8397 62.3806 66.7533C62.0022 67.667 61.9031 68.6723 62.0961 69.6422C62.289 70.6121 62.7652 71.503 63.4645 72.2023C64.1637 72.9015 65.0546 73.3777 66.0246 73.5707C66.9945 73.7636 67.9998 73.6646 68.9134 73.2861C69.827 72.9077 70.6079 72.2668 71.1573 71.4446C71.7068 70.6224 72 69.6557 72 68.6667C71.9987 67.3411 71.4715 66.0701 70.5341 65.1327C69.5967 64.1953 68.3257 63.6681 67 63.6667ZM67 72.0001C66.3407 72.0001 65.6963 71.8046 65.1481 71.4383C64.5999 71.072 64.1727 70.5514 63.9204 69.9424C63.6681 69.3333 63.6021 68.6631 63.7307 68.0164C63.8593 67.3698 64.1768 66.7759 64.643 66.3097C65.1092 65.8436 65.7031 65.5261 66.3497 65.3975C66.9963 65.2688 67.6665 65.3349 68.2756 65.5871C68.8847 65.8394 69.4053 66.2667 69.7716 66.8148C70.1378 67.363 70.3333 68.0075 70.3333 68.6667C70.3333 69.5508 69.9821 70.3986 69.357 71.0238C68.7319 71.6489 67.8841 72.0001 67 72.0001Z" fill="white"/>
</g>
<defs>
<filter id="filter0_d_172_44" x="0" y="0" width="138" height="138" filterUnits="userSpaceOnUse" color-interpolation-filters="sRGB">
<feFlood flood-opacity="0" result="BackgroundImageFix"/>
<feColorMatrix in="SourceAlpha" type="matrix" values="0 0 0 0 0 0 0 0 0 0 0 0 0 0 0 0 0 0 127 0" result="hardAlpha"/>
<feMorphology radius="2" operator="dilate" in="SourceAlpha" result="effect1_dropShadow_172_44"/>
<feOffset dx="2" dy="2"/>
<feGaussianBlur stdDeviation="7.5"/>
<feComposite in2="hardAlpha" operator="out"/>
<feColorMatrix type="matrix" values="0 0 0 0 0 0 0 0 0 0 0 0 0 0 0 0 0 0 0.25 0"/>
<feBlend mode="normal" in2="BackgroundImageFix" result="effect1_dropShadow_172_44"/>
<feBlend mode="normal" in="SourceGraphic" in2="effect1_dropShadow_172_44" result="shape"/>
</filter>
<linearGradient id="paint0_linear_172_44" x1="67" y1="15" x2="67" y2="119" gradientUnits="userSpaceOnUse">
<stop stop-color="#5D00E8"/>
<stop offset="1" stop-color="#2D0084"/>
</linearGradient>
<clipPath id="clip0_172_44">
<rect width="20" height="20" fill="white" transform="translate(57 57)"/>
</clipPath>
</defs>
</svg>
