<svg width="144" height="68" viewBox="0 0 144 68" fill="none" xmlns="http://www.w3.org/2000/svg">
<g clip-path="url(#clip0_2_9)">
<path d="M29.252 0C13.0472 0 0 13.0452 0 29.25V38.2969C0 54.5017 13.0472 67.5469 29.252 67.5469H114.289C130.494 67.5469 143.539 54.5017 143.539 38.2969V29.25C143.539 13.0452 130.494 0 114.289 0H29.252ZM21.8164 9.23048H28.9121V19.166H21.8164V9.23048ZM127.637 20.8808C128.369 20.8807 129.093 21.0247 129.769 21.3047C130.445 21.5847 131.06 21.9952 131.577 22.5126C132.095 23.0301 132.505 23.6444 132.785 24.3206C133.065 24.9967 133.209 25.7213 133.209 26.4531C133.209 27.1848 133.065 27.9092 132.785 28.5851C132.504 29.261 132.094 29.8751 131.577 30.3924C131.059 30.9096 130.445 31.3199 129.769 31.5997C129.093 31.8796 128.368 32.0236 127.637 32.0234C126.159 32.0232 124.743 31.4363 123.698 30.3917C122.654 29.3471 122.067 27.9304 122.066 26.4531C122.066 25.7215 122.21 24.997 122.49 24.321C122.77 23.645 123.18 23.0308 123.697 22.5133C124.215 21.9959 124.829 21.5854 125.505 21.3053C126.181 21.0252 126.905 20.8809 127.637 20.8808ZM9.85938 21.3985H19.7949V28.4961H9.85938V21.3985ZM30.8594 21.3985H40.7949V28.4961H30.8594V21.3985ZM21.8164 29.3008H28.9121V39.2364H21.8164V29.3008ZM116.102 30.3886C117.579 30.3889 118.995 30.9756 120.039 32.0198C121.084 33.0639 121.671 34.4801 121.672 35.9571C121.672 36.6887 121.528 37.4132 121.248 38.0892C120.968 38.7652 120.558 39.3794 120.041 39.8969C119.524 40.4143 118.909 40.8248 118.234 41.1049C117.558 41.385 116.833 41.5292 116.102 41.5293C115.37 41.5292 114.645 41.385 113.97 41.1049C113.294 40.8248 112.68 40.4143 112.162 39.8969C111.645 39.3794 111.235 38.7652 110.955 38.0892C110.675 37.4132 110.531 36.6887 110.531 35.9571C110.532 34.4801 111.119 33.0639 112.164 32.0198C113.208 30.9756 114.625 30.3889 116.102 30.3886ZM81.0527 34.1641C83.1973 34.1149 85.3255 35.1025 86.6641 36.9922L87.7422 38.5137L88.8301 37.0371C91.0295 34.0555 95.2 33.4256 98.1816 35.625C101.163 37.8245 101.793 41.9968 99.5938 44.9785L93.5879 53.1192L88.1504 60.6562L87.8516 60.4435L83.5352 55.1134C84.5777 55.8773 85.8059 56.3132 87.0664 56.3908C85.923 56.2695 84.7947 55.8578 83.7989 55.1232C83.4552 54.8696 83.1457 54.5863 82.8653 54.2853L82.293 53.5802L80.1231 50.9005L79.8789 50.5547L75.7481 44.7227C73.6065 41.6992 74.3164 37.54 77.3399 35.3984C78.4737 34.5953 79.766 34.1937 81.0527 34.1641ZM52.2656 34.8242C54.8509 34.8242 56.9882 35.3155 58.6758 36.2969C60.3634 37.2783 61.6307 38.5756 62.4805 40.1914L57.7949 42.5274C57.1965 41.5339 56.4672 40.8215 55.6055 40.3906C54.7437 39.9598 53.7857 39.7442 52.7324 39.7442C50.6977 39.7442 49.0104 40.479 47.6699 41.9512C46.3414 43.4114 45.6758 45.4718 45.6758 48.1289C45.6758 50.8458 46.3338 52.9212 47.6504 54.3574C48.979 55.7937 50.7206 56.5118 52.875 56.5118C53.5213 56.5118 54.1569 56.44 54.7793 56.2967C55.4137 56.141 55.9705 55.9143 56.4492 55.615V51.4315H51.2969V46.6189H62.248V58.4158C61.0153 59.3135 59.5904 60.0428 57.9746 60.6053C56.3708 61.1678 54.7491 61.449 53.1094 61.449C48.8485 61.449 45.5151 60.3074 43.1094 58.0213C40.7036 55.7233 39.5 52.5624 39.5 48.5408C39.5 44.4953 40.7093 41.1977 43.127 38.6483C45.5447 36.0989 48.5912 34.8242 52.2656 34.8242Z" fill="white"/>
</g>
<defs>
<clipPath id="clip0_2_9">
<rect width="143.539" height="67.5469" fill="white"/>
</clipPath>
</defs>
</svg>
