<svg width="94" height="44" viewBox="0 0 94 44" fill="none" xmlns="http://www.w3.org/2000/svg">
<g clip-path="url(#clip0_2_91)">
<path d="M19.1563 0C8.54428 0 0 8.49765 0 19.0534V24.9466C0 35.5024 8.54428 44 19.1563 44H74.8449C85.457 44 94 35.5024 94 24.9466V19.0534C94 8.49765 85.457 0 74.8449 0H19.1563ZM14.287 6.01273H18.9338V12.4847H14.287V6.01273ZM83.586 13.6018C84.0652 13.6017 84.5398 13.6955 84.9825 13.8779C85.4253 14.0603 85.8276 14.3276 86.1665 14.6647C86.5054 15.0018 86.7742 15.402 86.9575 15.8424C87.1409 16.2828 87.2352 16.7549 87.2351 17.2315C87.235 17.7081 87.1406 18.18 86.9572 18.6203C86.7737 19.0606 86.5049 19.4607 86.1661 19.7976C85.8272 20.1345 85.4249 20.4018 84.9822 20.5841C84.5396 20.7664 84.0651 20.8602 83.586 20.8601C82.6185 20.8599 81.6908 20.4776 81.0067 19.7971C80.3226 19.1167 79.9383 18.1938 79.9381 17.2315C79.938 16.755 80.0323 16.283 80.2156 15.8427C80.3988 15.4023 80.6675 15.0022 81.0062 14.6652C81.345 14.3281 81.7471 14.0607 82.1898 13.8783C82.6324 13.6958 83.1068 13.6018 83.586 13.6018ZM6.45665 13.939H12.9632V18.5624H6.45665V13.939ZM20.209 13.939H26.7155V18.5624H20.209V13.939ZM14.287 19.0865H18.9338V25.5585H14.287V19.0865ZM76.0319 19.7951C76.9991 19.7953 77.9267 20.1775 78.6107 20.8577C79.2947 21.5378 79.6793 22.4603 79.6797 23.4224C79.6798 23.899 79.5856 24.3709 79.4023 24.8113C79.219 25.2516 78.9503 25.6517 78.6116 25.9888C78.2729 26.3259 77.8707 26.5933 77.4281 26.7757C76.9854 26.9582 76.511 27.0521 76.0319 27.0522C75.5528 27.0521 75.0783 26.9582 74.6357 26.7757C74.1931 26.5933 73.7909 26.3259 73.4522 25.9888C73.1134 25.6517 72.8448 25.2516 72.6615 24.8113C72.4782 24.3709 72.3839 23.899 72.384 23.4224C72.3845 22.4603 72.769 21.5378 73.4531 20.8577C74.1371 20.1775 75.0647 19.7953 76.0319 19.7951ZM53.0793 22.2545C54.4838 22.2225 55.8775 22.8657 56.754 24.0967L57.4601 25.0878L58.1725 24.126C59.6129 22.1837 62.344 21.7734 64.2966 23.2061C66.2492 24.6389 66.6617 27.3567 65.2214 29.299L61.2883 34.6018L57.7274 39.5114L57.5317 39.3729L54.705 35.9009C55.3877 36.3984 56.192 36.6824 57.0175 36.7329C56.2687 36.6539 55.5298 36.3857 54.8777 35.9072C54.6526 35.742 54.4499 35.5575 54.2663 35.3614L53.8915 34.9021L52.4705 33.1566L52.3106 32.9313L49.6054 29.1323C48.2029 27.1628 48.6678 24.4536 50.6479 23.0585C51.3904 22.5354 52.2366 22.2737 53.0793 22.2545ZM34.2274 22.6845C35.9204 22.6845 37.3201 23.0045 38.4252 23.6438C39.5304 24.2831 40.3603 25.1281 40.9168 26.1807L37.8484 27.7023C37.4565 27.0552 36.9789 26.5911 36.4146 26.3104C35.8502 26.0298 35.2228 25.8893 34.5331 25.8893C33.2006 25.8893 32.0957 26.368 31.2178 27.327C30.3478 28.2782 29.9119 29.6203 29.9119 31.3511C29.9119 33.121 30.3428 34.4728 31.205 35.4084C32.075 36.344 33.2156 36.8117 34.6265 36.8117C35.0497 36.8117 35.466 36.765 35.8735 36.6717C36.289 36.5702 36.6536 36.4225 36.9671 36.2276V33.5024H33.593V30.3676H40.7646V38.052C39.9573 38.6368 39.0242 39.1118 37.9661 39.4782C36.9157 39.8447 35.8538 40.0279 34.7799 40.0279C31.9896 40.0279 29.8067 39.2842 28.2312 37.7951C26.6557 36.2981 25.8675 34.2391 25.8675 31.6195C25.8675 28.9842 26.6594 26.8361 28.2427 25.1755C29.826 23.5148 31.8211 22.6845 34.2274 22.6845Z" fill="white"/>
</g>
<defs>
<clipPath id="clip0_2_91">
<rect width="94" height="44" fill="white"/>
</clipPath>
</defs>
</svg>
