<svg width="20" height="20" viewBox="0 0 20 20" fill="none" xmlns="http://www.w3.org/2000/svg">
<g clip-path="url(#clip0_33_362)">
<path d="M14.5833 1.59741C13.645 1.61201 12.7271 1.87396 11.9223 2.3568C11.1176 2.83965 10.4545 3.5263 10 4.34741C9.54554 3.5263 8.88245 2.83965 8.0777 2.3568C7.27296 1.87396 6.35505 1.61201 5.41667 1.59741C3.92079 1.6624 2.51143 2.31679 1.49649 3.41761C0.481556 4.51842 -0.0564528 5.97618 5.93206e-06 7.47241C5.93206e-06 11.2616 3.98834 15.3999 7.33334 18.2057C8.08019 18.8334 9.02447 19.1774 10 19.1774C10.9755 19.1774 11.9198 18.8334 12.6667 18.2057C16.0117 15.3999 20 11.2616 20 7.47241C20.0565 5.97618 19.5185 4.51842 18.5035 3.41761C17.4886 2.31679 16.0792 1.6624 14.5833 1.59741ZM11.5958 16.9307C11.1492 17.3069 10.584 17.5132 10 17.5132C9.41605 17.5132 8.85085 17.3069 8.40417 16.9307C4.12251 13.3382 1.66667 9.89158 1.66667 7.47241C1.60971 6.41801 1.97198 5.38385 2.67448 4.5955C3.37697 3.80714 4.3627 3.32854 5.41667 3.26408C6.47064 3.32854 7.45637 3.80714 8.15887 4.5955C8.86137 5.38385 9.22364 6.41801 9.16667 7.47241C9.16667 7.69343 9.25447 7.90539 9.41075 8.06167C9.56703 8.21795 9.77899 8.30575 10 8.30575C10.221 8.30575 10.433 8.21795 10.5893 8.06167C10.7455 7.90539 10.8333 7.69343 10.8333 7.47241C10.7764 6.41801 11.1386 5.38385 11.8411 4.5955C12.5436 3.80714 13.5294 3.32854 14.5833 3.26408C15.6373 3.32854 16.623 3.80714 17.3255 4.5955C18.028 5.38385 18.3903 6.41801 18.3333 7.47241C18.3333 9.89158 15.8775 13.3382 11.5958 16.9274V16.9307Z" fill="white"/>
</g>
<defs>
<clipPath id="clip0_33_362">
<rect width="20" height="20" fill="white"/>
</clipPath>
</defs>
</svg>
