<svg width="50" height="50" viewBox="0 0 50 50" fill="none" xmlns="http://www.w3.org/2000/svg">
<rect width="50" height="50" rx="14" fill="url(#paint0_linear_142_44)"/>
<g clip-path="url(#clip0_142_44)">
<path d="M25 26C25.6593 26 26.3038 25.8045 26.8519 25.4382C27.4001 25.072 27.8274 24.5514 28.0796 23.9423C28.3319 23.3332 28.3979 22.663 28.2693 22.0164C28.1407 21.3698 27.8232 20.7758 27.3571 20.3096C26.8909 19.8435 26.297 19.526 25.6503 19.3974C25.0037 19.2688 24.3335 19.3348 23.7244 19.5871C23.1153 19.8394 22.5948 20.2666 22.2285 20.8148C21.8622 21.3629 21.6667 22.0074 21.6667 22.6667C21.6667 23.5507 22.0179 24.3986 22.643 25.0237C23.2681 25.6488 24.116 26 25 26ZM25 21C25.3297 21 25.6519 21.0977 25.926 21.2809C26.2001 21.464 26.4137 21.7243 26.5398 22.0289C26.666 22.3334 26.699 22.6685 26.6347 22.9918C26.5704 23.3151 26.4116 23.6121 26.1786 23.8452C25.9455 24.0783 25.6485 24.237 25.3252 24.3013C25.0019 24.3656 24.6668 24.3326 24.3622 24.2065C24.0577 24.0803 23.7974 23.8667 23.6143 23.5926C23.4311 23.3185 23.3334 22.9963 23.3334 22.6667C23.3334 22.2246 23.509 21.8007 23.8215 21.4882C24.1341 21.1756 24.558 21 25 21ZM32.2167 23.6308L31.6175 23.4317C31.7254 22.4983 31.6347 21.5526 31.3514 20.6567C31.0681 19.7609 30.5986 18.935 29.9738 18.2332C29.3489 17.5315 28.5828 16.9698 27.7257 16.5849C26.8685 16.2001 25.9397 16.0007 25 16C24.0482 16.0004 23.1074 16.2047 22.2412 16.5994C21.375 16.994 20.6034 17.5697 19.9785 18.2876C19.3535 19.0056 18.8897 19.8492 18.6183 20.7616C18.3469 21.6739 18.2742 22.6338 18.405 23.5767C17.6076 23.7254 16.8702 24.1016 16.2817 24.66C15.8744 25.0473 15.5505 25.5138 15.3301 26.0309C15.1097 26.5479 14.9974 27.1046 15 27.6667V31.0625C15.0018 31.9636 15.2949 32.84 15.8355 33.5609C16.3762 34.2818 17.1355 34.8085 18 35.0625L20.3917 35.8125C20.7934 35.9375 21.2118 36.0007 21.6325 36C22.0142 35.9995 22.394 35.9474 22.7617 35.845L27.5784 34.42C28.0075 34.3029 28.4601 34.3029 28.8892 34.42L30.8784 35.0867C31.3686 35.206 31.8796 35.2125 32.3727 35.1056C32.8658 34.9988 33.3282 34.7813 33.7251 34.4698C34.122 34.1582 34.4429 33.7606 34.6638 33.3069C34.8846 32.8533 34.9996 32.3554 35 31.8508V27.56C34.9982 26.6978 34.7297 25.8574 34.2314 25.1538C33.7331 24.4502 33.0294 23.9188 32.2167 23.6308ZM21.465 19.135C21.9286 18.6696 22.4795 18.3003 23.0861 18.0483C23.6927 17.7963 24.3432 17.6666 25 17.6666C25.6569 17.6666 26.3073 17.7963 26.914 18.0483C27.5206 18.3003 28.0715 18.6696 28.535 19.135C29.4702 20.076 29.9958 21.3482 29.9975 22.6748C29.9992 24.0014 29.4769 25.275 28.5442 26.2183L25.5834 29.0975C25.4288 29.249 25.2211 29.3339 25.0046 29.3339C24.7882 29.3339 24.5804 29.249 24.4259 29.0975L21.465 26.2308C20.5279 25.2878 20.002 24.0124 20.002 22.6829C20.002 21.3535 20.5279 20.078 21.465 19.135ZM33.3334 31.8508C33.3339 32.1032 33.2768 32.3524 33.1665 32.5794C33.0562 32.8064 32.8955 33.0053 32.6967 33.1608C32.5089 33.3118 32.2901 33.4196 32.0559 33.4765C31.8217 33.5334 31.5779 33.538 31.3417 33.49L29.3875 32.8333C28.6484 32.621 27.865 32.6164 27.1234 32.82L22.3034 34.2433C21.8403 34.3711 21.3502 34.3627 20.8917 34.2192L18.48 33.4692C17.9581 33.3182 17.4992 33.0021 17.1722 32.5681C16.8452 32.1341 16.6679 31.6058 16.6667 31.0625V27.6667C16.6648 27.3298 16.7319 26.9961 16.8637 26.6862C16.9956 26.3762 17.1894 26.0965 17.4334 25.8642C17.8153 25.5002 18.3017 25.2653 18.8242 25.1925C19.1601 26.0252 19.6604 26.7816 20.295 27.4167L23.2675 30.2942C23.7321 30.7491 24.3565 31.0039 25.0067 31.0039C25.6569 31.0039 26.2813 30.7491 26.7459 30.2942L29.715 27.4083C30.3798 26.7409 30.8949 25.9395 31.2259 25.0575L31.6734 25.2058C32.1587 25.3797 32.5785 25.6991 32.8756 26.1204C33.1727 26.5418 33.3326 27.0445 33.3334 27.56V31.8508Z" fill="white"/>
</g>
<defs>
<linearGradient id="paint0_linear_142_44" x1="25" y1="0" x2="25" y2="50" gradientUnits="userSpaceOnUse">
<stop stop-color="#5D00E8"/>
<stop offset="1" stop-color="#2D0084"/>
</linearGradient>
<clipPath id="clip0_142_44">
<rect width="20" height="20" fill="white" transform="translate(15 16)"/>
</clipPath>
</defs>
</svg>
