<svg width="124" height="124" viewBox="0 0 124 124" fill="none" xmlns="http://www.w3.org/2000/svg">
<g filter="url(#filter0_d_178_49)">
<rect x="15" y="15" width="90" height="90" rx="16" fill="url(#paint0_linear_178_49)"/>
</g>
<g clip-path="url(#clip0_178_49)">
<path d="M69.1667 59.1667H60.8333V50.8333C60.8333 50.6123 60.7455 50.4004 60.5893 50.2441C60.433 50.0878 60.221 50 60 50C59.779 50 59.567 50.0878 59.4107 50.2441C59.2545 50.4004 59.1667 50.6123 59.1667 50.8333V59.1667H50.8333C50.6123 59.1667 50.4004 59.2545 50.2441 59.4107C50.0878 59.567 50 59.779 50 60C50 60.221 50.0878 60.433 50.2441 60.5893C50.4004 60.7455 50.6123 60.8333 50.8333 60.8333H59.1667V69.1667C59.1667 69.3877 59.2545 69.5996 59.4107 69.7559C59.567 69.9122 59.779 70 60 70C60.221 70 60.433 69.9122 60.5893 69.7559C60.7455 69.5996 60.8333 69.3877 60.8333 69.1667V60.8333H69.1667C69.3877 60.8333 69.5996 60.7455 69.7559 60.5893C69.9122 60.433 70 60.221 70 60C70 59.779 69.9122 59.567 69.7559 59.4107C69.5996 59.2545 69.3877 59.1667 69.1667 59.1667Z" fill="white"/>
</g>
<defs>
<filter id="filter0_d_178_49" x="0" y="0" width="124" height="124" filterUnits="userSpaceOnUse" color-interpolation-filters="sRGB">
<feFlood flood-opacity="0" result="BackgroundImageFix"/>
<feColorMatrix in="SourceAlpha" type="matrix" values="0 0 0 0 0 0 0 0 0 0 0 0 0 0 0 0 0 0 127 0" result="hardAlpha"/>
<feMorphology radius="2" operator="dilate" in="SourceAlpha" result="effect1_dropShadow_178_49"/>
<feOffset dx="2" dy="2"/>
<feGaussianBlur stdDeviation="7.5"/>
<feComposite in2="hardAlpha" operator="out"/>
<feColorMatrix type="matrix" values="0 0 0 0 0 0 0 0 0 0 0 0 0 0 0 0 0 0 0.25 0"/>
<feBlend mode="normal" in2="BackgroundImageFix" result="effect1_dropShadow_178_49"/>
<feBlend mode="normal" in="SourceGraphic" in2="effect1_dropShadow_178_49" result="shape"/>
</filter>
<linearGradient id="paint0_linear_178_49" x1="60" y1="15" x2="60" y2="105" gradientUnits="userSpaceOnUse">
<stop stop-color="#56467E"/>
<stop offset="1" stop-color="#36294A"/>
</linearGradient>
<clipPath id="clip0_178_49">
<rect width="20" height="20" fill="white" transform="translate(50 50)"/>
</clipPath>
</defs>
</svg>
