<svg width="60" height="60" viewBox="0 0 60 60" fill="none" xmlns="http://www.w3.org/2000/svg">
<g filter="url(#filter0_i_186_95)">
<rect width="60" height="60" rx="16" fill="url(#paint0_linear_186_95)"/>
</g>
<g clip-path="url(#clip0_186_95)">
<path d="M30 30C30.9889 30 31.9556 29.7068 32.7779 29.1573C33.6001 28.6079 34.241 27.827 34.6194 26.9134C34.9978 25.9998 35.0969 24.9945 34.9039 24.0246C34.711 23.0546 34.2348 22.1637 33.5355 21.4645C32.8363 20.7652 31.9454 20.289 30.9755 20.0961C30.0055 19.9031 29.0002 20.0022 28.0866 20.3806C27.173 20.759 26.3921 21.3999 25.8427 22.2222C25.2932 23.0444 25 24.0111 25 25C25.0013 26.3257 25.5285 27.5967 26.4659 28.5341C27.4033 29.4715 28.6743 29.9987 30 30ZM30 21.6667C30.6593 21.6667 31.3037 21.8622 31.8519 22.2284C32.4001 22.5947 32.8273 23.1153 33.0796 23.7244C33.3319 24.3335 33.3979 25.0037 33.2693 25.6503C33.1407 26.2969 32.8232 26.8908 32.357 27.357C31.8908 27.8232 31.2969 28.1407 30.6503 28.2693C30.0037 28.3979 29.3335 28.3319 28.7244 28.0796C28.1153 27.8273 27.5947 27.4001 27.2284 26.8519C26.8622 26.3037 26.6667 25.6593 26.6667 25C26.6667 24.1159 27.0179 23.2681 27.643 22.643C28.2681 22.0179 29.1159 21.6667 30 21.6667Z" fill="white"/>
<path d="M30 31.6667C28.0116 31.669 26.1052 32.4598 24.6991 33.8659C23.2931 35.2719 22.5022 37.1783 22.5 39.1667C22.5 39.3878 22.5878 39.5997 22.7441 39.756C22.9004 39.9123 23.1123 40.0001 23.3333 40.0001C23.5543 40.0001 23.7663 39.9123 23.9226 39.756C24.0789 39.5997 24.1667 39.3878 24.1667 39.1667C24.1667 37.6197 24.7812 36.1359 25.8752 35.042C26.9692 33.948 28.4529 33.3334 30 33.3334C31.5471 33.3334 33.0308 33.948 34.1248 35.042C35.2188 36.1359 35.8333 37.6197 35.8333 39.1667C35.8333 39.3878 35.9211 39.5997 36.0774 39.756C36.2337 39.9123 36.4457 40.0001 36.6667 40.0001C36.8877 40.0001 37.0996 39.9123 37.2559 39.756C37.4122 39.5997 37.5 39.3878 37.5 39.1667C37.4978 37.1783 36.7069 35.2719 35.3009 33.8659C33.8948 32.4598 31.9884 31.669 30 31.6667Z" fill="white"/>
</g>
<defs>
<filter id="filter0_i_186_95" x="0" y="0" width="64" height="64" filterUnits="userSpaceOnUse" color-interpolation-filters="sRGB">
<feFlood flood-opacity="0" result="BackgroundImageFix"/>
<feBlend mode="normal" in="SourceGraphic" in2="BackgroundImageFix" result="shape"/>
<feColorMatrix in="SourceAlpha" type="matrix" values="0 0 0 0 0 0 0 0 0 0 0 0 0 0 0 0 0 0 127 0" result="hardAlpha"/>
<feMorphology radius="2" operator="erode" in="SourceAlpha" result="effect1_innerShadow_186_95"/>
<feOffset dx="4" dy="4"/>
<feGaussianBlur stdDeviation="4"/>
<feComposite in2="hardAlpha" operator="arithmetic" k2="-1" k3="1"/>
<feColorMatrix type="matrix" values="0 0 0 0 0 0 0 0 0 0 0 0 0 0 0 0 0 0 0.25 0"/>
<feBlend mode="normal" in2="shape" result="effect1_innerShadow_186_95"/>
</filter>
<linearGradient id="paint0_linear_186_95" x1="30" y1="0" x2="30" y2="60" gradientUnits="userSpaceOnUse">
<stop stop-color="#7D62C1"/>
<stop offset="1" stop-color="#503B71"/>
</linearGradient>
<clipPath id="clip0_186_95">
<rect width="20" height="20" fill="white" transform="translate(20 20)"/>
</clipPath>
</defs>
</svg>
