<svg width="20" height="20" viewBox="0 0 20 20" fill="none" xmlns="http://www.w3.org/2000/svg">
<g clip-path="url(#clip0_33_359)">
<path d="M13.3333 6.54282C13.1771 6.38659 12.9651 6.29883 12.7442 6.29883C12.5232 6.29883 12.3113 6.38659 12.155 6.54282L10 8.69782L7.845 6.54282C7.68783 6.39102 7.47733 6.30702 7.25883 6.30892C7.04033 6.31082 6.83132 6.39846 6.67682 6.55297C6.52231 6.70747 6.43467 6.91649 6.43277 7.13498C6.43087 7.35348 6.51487 7.56398 6.66667 7.72115L8.82167 9.87615L6.66667 12.0312C6.51487 12.1883 6.43087 12.3988 6.43277 12.6173C6.43467 12.8358 6.52231 13.0448 6.67682 13.1993C6.83132 13.3538 7.04033 13.4415 7.25883 13.4434C7.47733 13.4453 7.68783 13.3613 7.845 13.2095L10 11.0545L12.155 13.2095C12.3122 13.3613 12.5227 13.4453 12.7412 13.4434C12.9597 13.4415 13.1687 13.3538 13.3232 13.1993C13.4777 13.0448 13.5653 12.8358 13.5672 12.6173C13.5691 12.3988 13.4851 12.1883 13.3333 12.0312L11.1783 9.87615L13.3333 7.72115C13.4896 7.56488 13.5773 7.35295 13.5773 7.13198C13.5773 6.91101 13.4896 6.69909 13.3333 6.54282Z" fill="white"/>
<path d="M10 0C8.02219 0 6.08879 0.58649 4.4443 1.6853C2.79981 2.78412 1.51809 4.3459 0.761209 6.17317C0.00433286 8.00043 -0.193701 10.0111 0.192152 11.9509C0.578004 13.8907 1.53041 15.6725 2.92894 17.0711C4.32746 18.4696 6.10929 19.422 8.0491 19.8079C9.98891 20.1937 11.9996 19.9957 13.8268 19.2388C15.6541 18.4819 17.2159 17.2002 18.3147 15.5557C19.4135 13.9112 20 11.9778 20 10C19.9971 7.34872 18.9426 4.80684 17.0679 2.9321C15.1932 1.05736 12.6513 0.00286757 10 0ZM10 18.3333C8.35183 18.3333 6.74066 17.8446 5.37025 16.9289C3.99984 16.0132 2.93174 14.7117 2.30101 13.189C1.67028 11.6663 1.50525 9.99076 1.82679 8.37425C2.14834 6.75774 2.94201 5.27288 4.10745 4.10744C5.27289 2.94201 6.75774 2.14833 8.37425 1.82679C9.99076 1.50525 11.6663 1.67027 13.189 2.301C14.7118 2.93173 16.0132 3.99984 16.9289 5.37025C17.8446 6.74066 18.3333 8.35182 18.3333 10C18.3309 12.2094 17.4522 14.3276 15.8899 15.8899C14.3276 17.4522 12.2094 18.3309 10 18.3333Z" fill="white"/>
</g>
<defs>
<clipPath id="clip0_33_359">
<rect width="20" height="20" fill="white"/>
</clipPath>
</defs>
</svg>
