<svg width="20" height="20" viewBox="0 0 20 20" fill="none" xmlns="http://www.w3.org/2000/svg">
<path d="M11.7416 19.2667L15 16.0417C15.0781 15.9642 15.1401 15.872 15.1824 15.7705C15.2247 15.6689 15.2465 15.56 15.2465 15.45C15.2465 15.34 15.2247 15.2311 15.1824 15.1295C15.1401 15.028 15.0781 14.9358 15 14.8583C14.8438 14.7031 14.6326 14.616 14.4125 14.616C14.1923 14.616 13.9811 14.7031 13.825 14.8583L10.8333 17.825L10.8333 0.833333C10.8333 0.612319 10.7455 0.400358 10.5892 0.244077C10.4329 0.0877972 10.221 -2.19671e-07 9.99996 -2.29332e-07C9.77895 -2.38993e-07 9.56699 0.0877971 9.41071 0.244077C9.25443 0.400358 9.16663 0.612319 9.16663 0.833333L9.16663 17.875L6.15829 14.8583C6.08082 14.7802 5.98866 14.7182 5.88711 14.6759C5.78556 14.6336 5.67664 14.6118 5.56663 14.6118C5.45662 14.6118 5.3477 14.6336 5.24615 14.6759C5.1446 14.7182 5.05243 14.7802 4.97496 14.8583C4.89685 14.9358 4.83486 15.028 4.79255 15.1295C4.75024 15.2311 4.72846 15.34 4.72846 15.45C4.72846 15.56 4.75024 15.6689 4.79255 15.7705C4.83486 15.872 4.89685 15.9642 4.97496 16.0417L8.20829 19.2667C8.67704 19.7348 9.31246 19.9978 9.97496 19.9978C10.6375 19.9978 11.2729 19.7348 11.7416 19.2667Z" fill="white"/>
</svg>
